<svg id="Layer_1" data-name="Layer 1" xmlns="http://www.w3.org/2000/svg" width="1067" height="493.4" viewBox="0 0 1067 493.4"><title>icons</title><path d="M128,65.5l79,144.9H49Zm0-38.2L18.1,228.7H237.9Zm-9.2,82.4h18.4v54.9H118.8ZM128,199a11.5,11.5,0,1,1,11.4-11.5A11.5,11.5,0,0,1,128,199Z" transform="translate(-18.1 -27.3)"/><path d="M414.3,53.2v71.7c0,3.2,5.7,3.3,5.7,0V64.7c0-11.4,20.1-11.7,20.1,0v68.2c0,4.2,4.2,4.8,5.7,1.7s7.6-16.6,7.7-16.7c6.2-13,26.8-5.1,20.4,10.1-1.6,4.1-21.3,49-26.4,60.3s-15.6,23.6-34.6,23.6H379.8c-20,0-30.6-11.9-30.6-32.7V88.5c0-12.1,16.6-11.4,16.6-.6v39.8c0,3.3,6,3.3,6,0V63.8c0-12.4,18.5-12.1,18.5,0v60.4c0,3.3,5.6,3.1,5.6-.1V53.2C395.9,41.2,414.3,40.8,414.3,53.2Zm-9.1-25.9A25.7,25.7,0,0,0,384,38a25.8,25.8,0,0,0-29,24.9c-13,1.2-22.6,11.8-22.6,25.6v90.7c0,30.6,18.2,49.5,47.4,49.5h33.1c22.5,0,40.3-11.9,50-33.6,3.6-8.2,24.1-54.5,26.6-60.8,3.9-9.4,3.1-19.3-2.1-27.1a28.9,28.9,0,0,0-30.5-11.9V64.7c0-16.1-13.8-26.9-29.6-25.3A25.3,25.3,0,0,0,405.2,27.3Z" transform="translate(-18.1 -27.3)"/><path d="M724.2,128H693V34.4h31.2ZM757,48.1l-9.4,12.5a78,78,0,1,1-78,0l-9.5-12.5a93.7,93.7,0,1,0,96.9,0Z" transform="translate(-18.1 -27.3)"/><path d="M922.2,38.4,946,27.3l34,66.2-22.9,11.3c-4.5,10.5,18.1,52.7,27.7,53.4l22.4-11.1,34.5,66.6-24,11.7C951.7,255.5,857.4,72.1,922.2,38.4Zm16.2,10.7-8.6,4.2c-44.5,23.2,35,177.8,81,156.8l8.1-3.9-19-36.8-8.7,4.2c-26.5,13-69.3-69-42.4-83.5l8.5-4.1Zm65.7,64.2,24.5,7.3a25.5,25.5,0,0,0-17.2-31.8Zm15.2-50.9a53.1,53.1,0,0,1,35.7,66l-15.1-4.5a37.4,37.4,0,0,0-25.1-46.4Zm7.9-26.7a80.9,80.9,0,0,1,54.5,100.7l-15.4-4.6a64.8,64.8,0,0,0-43.7-80.7Z" transform="translate(-18.1 -27.3)"/><path d="M402.2,520.7H362.3V321.3h39.9ZM462,321.3H422.1V520.7H462Z" transform="translate(-18.1 -27.3)"/><path d="M700.5,421l-89.1,56.7V364.3Zm0-56.7V477.7l81-56.7Zm105.3,8.1H781.5v97.2h24.3Z" transform="translate(-18.1 -27.3)"/><path d="M136.1,421l89.1,56.7V364.3Zm0-56.7V477.7L55.1,421ZM30.8,372.4H55.1v97.2H30.8Z" transform="translate(-18.1 -27.3)"/></svg>